<svg xmlns="http://www.w3.org/2000/svg" width="28" height="28" viewBox="0 0 28 28"><g><g><path fill="#fff" d="M20.866 1.749A14 14 0 1 1 2.725 22.174a8.748 8.748 0 0 1 1.242-.096H5.33a10.63 10.63 0 0 1 5.008 1.365 2.892 2.892 0 0 0 4.244-2.593 2.92 2.92 0 0 0-2.948-2.838c-.447.008-.886.12-1.282.327a8.664 8.664 0 0 1-4.094 1.106H2.902a7.465 7.465 0 0 1-1.896-.26 14 14 0 0 1 0-10.37 9.62 9.62 0 0 1 3.343-.628h1.364a10.63 10.63 0 0 1 5.008 1.365 2.893 2.893 0 0 0 4.285-2.524 2.92 2.92 0 0 0-2.934-2.852c-.447.007-.887.12-1.283.327A8.664 8.664 0 0 1 6.696 5.61H2.725A13.973 13.973 0 0 1 13.995 0a14 14 0 0 1 6.871 1.749zm1.344 15.43a3.398 3.398 0 0 0 3.398-3.452 3.439 3.439 0 0 0-3.48-3.343 3.371 3.371 0 0 0-1.5.396 10.194 10.194 0 0 1-4.763 1.365h-3.957a10.193 10.193 0 0 1-4.762-1.365 3.371 3.371 0 0 0-1.501-.396 3.44 3.44 0 0 0-3.48 3.33 3.398 3.398 0 0 0 5.008 3.056 12.512 12.512 0 0 1 5.895-1.637h1.61c2.07.05 4.096.612 5.895 1.637a3.385 3.385 0 0 0 1.61.41z"/></g></g></svg>