<svg xmlns="http://www.w3.org/2000/svg" width="29" height="29" viewBox="0 0 29 29"><g><g><path fill="#fff" d="M28 27.211a.952.952 0 0 1 0 1.379.972.972 0 0 1-.69.295c-.246 0-.492-.098-.738-.295l-8.342-8.342a11.201 11.201 0 0 1-7.09 2.56 11.239 11.239 0 0 1-7.83-3.2c-4.333-4.334-4.333-11.375 0-15.708s11.374-4.333 15.708 0c4.087 4.087 4.284 10.636.64 14.97zM17.59 5.28a9.137 9.137 0 0 0-6.45-2.66 9.137 9.137 0 0 0-6.451 2.66c-3.546 3.545-3.546 9.355 0 12.9 3.545 3.546 9.355 3.546 12.9 0 3.546-3.545 3.546-9.355 0-12.9zm-.542 6.45a.988.988 0 0 1-.985.985h-3.939v3.94a.988.988 0 0 1-.985.984.988.988 0 0 1-.985-.985v-3.939H6.215a.988.988 0 0 1-.985-.985c0-.541.443-.985.985-.985h3.94V6.805c0-.542.443-.985.984-.985.542 0 .985.443.985.985v3.94h3.94c.54 0 .984.443.984.984z"/></g></g></svg>