<svg xmlns="http://www.w3.org/2000/svg" width="31" height="31" viewBox="0 0 31 31"><g><g><path fill="#fff" d="M30.412 9.538a2.05 2.05 0 0 1 0 2.875l-4.9 4.9-2.025-2.025-1.176 1.176 2.025 2.025-11.923 11.923a2.027 2.027 0 0 1-1.437.588 2.027 2.027 0 0 1-1.438-.588l-1.96-1.96c-.293-.261-.326-.686-.13-1.013a2.86 2.86 0 0 0-.425-3.495c-.947-.915-2.384-1.11-3.495-.425a.839.839 0 0 1-1.013-.13L.588 21.46a2.05 2.05 0 0 1 0-2.874L12.511 6.664l2.025 2.025 1.176-1.176-2.025-2.025 4.9-4.9a2.05 2.05 0 0 1 2.875 0l1.927 1.927a.846.846 0 0 1 .13 1.046 2.823 2.823 0 0 0 .393 3.528 2.818 2.818 0 0 0 3.527.392.887.887 0 0 1 1.046.13zm-12.576 2.483l1.176-1.176-2.189-2.189-1.176 1.176zm4.475 2.123l-2.189-2.188-1.176 1.176 2.189 2.188z"/></g></g></svg>