<svg xmlns="http://www.w3.org/2000/svg" width="76" height="76" viewBox="0 0 76 76"><defs><clipPath id="t8xma"><path fill="#fff" d="M0 38C0 17.013 17.013 0 38 0s38 17.013 38 38-17.013 38-38 38S0 58.987 0 38z"/></clipPath><clipPath id="t8xmb"><path fill="#fff" d="M0 76V0h76v76z"/></clipPath><clipPath id="t8xmd"><path fill="#fff" d="M9.053 65.65L-27.11 29.489l54.996-54.997L64.05 10.654z"/></clipPath><clipPath id="t8xmf"><path fill="#fff" d="M0 38C0 17.013 17.013 0 38 0s38 17.013 38 38-17.013 38-38 38S0 58.987 0 38z"/></clipPath><mask id="t8xmh" width="2" height="2" x="-1" y="-1"><path fill="#fff" d="M8 8h60v60H8z"/><path d="M8 38C8 21.431 21.431 8 38 8c16.569 0 30 13.431 30 30 0 16.569-13.431 30-30 30C21.431 68 8 54.569 8 38z"/></mask><filter id="t8xmg" width="90" height="90" x="-7" y="-7" filterUnits="userSpaceOnUse"><feOffset in="SourceGraphic" result="FeOffset1061Out"/><feGaussianBlur in="FeOffset1061Out" result="FeGaussianBlur1062Out" stdDeviation="2 2"/></filter><clipPath id="t8xmi"><path fill="#fff" d="M8 38C8 21.431 21.431 8 38 8c16.569 0 30 13.431 30 30 0 16.569-13.431 30-30 30C21.431 68 8 54.569 8 38z"/></clipPath><clipPath id="t8xmc"><path d="M0 76V0h76v76z"/></clipPath><clipPath id="t8xme"><path d="M9.053 65.65L-27.11 29.489l54.996-54.997L64.05 10.654z"/></clipPath></defs><g><g><g><g opacity=".5"><path fill="none" stroke="#0d4575" stroke-miterlimit="50" stroke-width="10" d="M0 38C0 17.013 17.013 0 38 0s38 17.013 38 38-17.013 38-38 38S0 58.987 0 38z" clip-path="url(&quot;#t8xma&quot;)"/></g><g><g><path fill="#fff" d="M0 76V0h76v76z"/><path fill="none" stroke="#707070" stroke-miterlimit="50" stroke-width="2" d="M0 76v0V0v0h76v76z" clip-path="url(&quot;#t8xmb&quot;)"/></g><g clip-path="url(#t8xmc)"><g><path fill="#fff" d="M9.053 65.65L-27.11 29.489l54.996-54.997L64.05 10.654z"/><path fill="none" stroke="#707070" stroke-miterlimit="50" stroke-width="2" d="M9.053 65.65v0L-27.11 29.489v0l54.996-54.997v0L64.05 10.654v0z" clip-path="url(&quot;#t8xmd&quot;)"/></g><g clip-path="url(#t8xme)"><path fill="none" stroke="#0d4575" stroke-miterlimit="50" stroke-width="10" d="M0 38C0 17.013 17.013 0 38 0s38 17.013 38 38-17.013 38-38 38S0 58.987 0 38z" clip-path="url(&quot;#t8xmf&quot;)"/></g></g></g></g><g><g filter="url(#t8xmg)"><path fill="none" d="M8 38C8 21.431 21.431 8 38 8c16.569 0 30 13.431 30 30 0 16.569-13.431 30-30 30C21.431 68 8 54.569 8 38z" mask="url(&quot;#t8xmh&quot;)"/><path fill="#85a1b9" fill-opacity=".5" d="M8 38C8 21.431 21.431 8 38 8c16.569 0 30 13.431 30 30 0 16.569-13.431 30-30 30C21.431 68 8 54.569 8 38z"/></g><path fill="none" stroke="#85a1b9" stroke-miterlimit="50" stroke-width="2" d="M8 38C8 21.431 21.431 8 38 8c16.569 0 30 13.431 30 30 0 16.569-13.431 30-30 30C21.431 68 8 54.569 8 38z" clip-path="url(&quot;#t8xmi&quot;)"/></g><g><g><g><g><path fill="#0d4575" d="M52.412 50.339l-4.028 2.564a.574.574 0 0 0-.265.484v.466h-4.586v-5.415l4.37-3.074a1.053 1.053 0 0 1 1.238 1.704l-3.086 2.314.688.917 3.086-2.314a2.2 2.2 0 0 0 .05-3.481l1.399-7.926a1.293 1.293 0 0 1 2.565.224l.008 10.458a3.695 3.695 0 0 1-1.44 3.079zm2.586-3.08L54.99 36.8a2.442 2.442 0 0 0-2.44-2.437 2.435 2.435 0 0 0-2.401 2.016l-1.353 7.664a2.19 2.19 0 0 0-1.552.383l-4.614 3.246a.572.572 0 0 0-.243.469v6.286c0 .316.256.573.573.573h5.732a.573.573 0 0 0 .573-.573V53.7l3.774-2.403a4.85 4.85 0 0 0 1.959-4.039z"/></g></g></g><g><g><g><path fill="#0d4575" d="M27.88 53.853v-.466c0-.196-.1-.379-.265-.484L23.6 50.347a3.697 3.697 0 0 1-1.452-3.086l.009-10.46a1.293 1.293 0 0 1 2.565-.223l1.399 7.926a2.2 2.2 0 0 0 .05 3.481l3.085 2.314.688-.917-3.085-2.314a1.053 1.053 0 0 1 1.237-1.704l4.37 3.074v5.415zm5.49-6.181l-4.614-3.246a2.19 2.19 0 0 0-1.552-.383L25.85 36.38a2.44 2.44 0 0 0-4.841.421l-.008 10.46a4.853 4.853 0 0 0 1.97 4.046l3.762 2.395v.726c0 .316.257.573.574.573h5.732a.573.573 0 0 0 .573-.573V48.14a.572.572 0 0 0-.243-.47z"/></g></g></g><g><g><g><path fill="#0d4575" d="M37.986 21h-.036l.036 1.146c.701 0 1.401.067 2.09.2l.219-1.125a12.132 12.132 0 0 0-2.31-.221z"/></g></g></g><g><g><g><path fill="#0d4575" d="M35.658 21.236c-.773.155-1.528.387-2.256.69l.443 1.058c.657-.274 1.34-.483 2.039-.624z"/></g></g></g><g><g><g><path fill="#0d4575" d="M45.614 40.493c-.504.504-1.056.958-1.649 1.356l.64.952c.653-.439 1.263-.94 1.82-1.498z"/></g></g></g><g><g><g><path fill="#0d4575" d="M42.502 21.898l-.436 1.06c.66.271 1.29.606 1.885 1l.634-.954a12.02 12.02 0 0 0-2.083-1.106z"/></g></g></g><g><g><g><path fill="#0d4575" d="M48.692 32.89c0 .713-.069 1.425-.207 2.124l1.125.223c.152-.773.229-1.56.229-2.347v-.049z"/></g></g></g><g><g><g><path fill="#0d4575" d="M46.37 24.494l-.807.814a10.99 10.99 0 0 1 1.362 1.644l.95-.641a12.127 12.127 0 0 0-1.504-1.817z"/></g></g></g><g><g><g><path fill="#0d4575" d="M42.134 42.833c-.658.273-1.341.481-2.04.62l.223 1.125c.773-.154 1.53-.384 2.257-.686z"/></g></g></g><g><g><g><path fill="#0d4575" d="M48.973 28.295l-1.057.443c.275.658.485 1.34.627 2.04l1.123-.228a12.007 12.007 0 0 0-.693-2.255z"/></g></g></g><g><g><g><path fill="#0d4575" d="M47.942 37.003c-.273.66-.61 1.29-1.007 1.882l.953.637a12.07 12.07 0 0 0 1.113-2.08z"/></g></g></g><g><g><g><path fill="#0d4575" d="M38.014 43.658c-.709 0-1.417-.068-2.113-.205l-.22 1.126c.768.15 1.55.226 2.333.226h.012z"/></g></g></g><g><g><g><path fill="#0d4575" d="M29.062 38.88l-.951.64c.44.654.942 1.263 1.5 1.82l.81-.812a10.97 10.97 0 0 1-1.359-1.648z"/></g></g></g><g><g><g><path fill="#0d4575" d="M31.374 23.046c-.653.44-1.262.943-1.818 1.502l.813.809a10.955 10.955 0 0 1 1.646-1.36z"/></g></g></g><g><g><g><path fill="#0d4575" d="M26.385 30.597a12.148 12.148 0 0 0-.224 2.321v.024l1.147-.024c0-.705.067-1.41.202-2.102z"/></g></g></g><g><g><g><path fill="#0d4575" d="M28.097 26.308a12.038 12.038 0 0 0-1.108 2.082l1.06.437c.272-.66.607-1.29 1.003-1.883z"/></g></g></g><g><g><g><path fill="#0d4575" d="M27.453 35.01l-1.124.224c.155.773.385 1.529.688 2.257l1.058-.441a10.843 10.843 0 0 1-.622-2.04z"/></g></g></g><g><g><g><path fill="#0d4575" d="M32.03 41.847l-.636.954c.655.437 1.352.81 2.08 1.11l.438-1.06a10.875 10.875 0 0 1-1.882-1.004z"/></g></g></g><g><g><g><path fill="#0d4575" d="M44.741 33.413a2.93 2.93 0 0 1 .711 1.918 2.82 2.82 0 0 1-2.295 2.823.628.628 0 0 0-.472.616 2.812 2.812 0 0 1-2.748 2.866 2.628 2.628 0 0 1-1.364-.39v-6.488a1.146 1.146 0 1 1 2.293 0h1.147a2.296 2.296 0 0 0-2.293-2.293c-.404.002-.8.112-1.147.319V24.83c.41-.253.882-.388 1.364-.39a2.681 2.681 0 0 1 2.606 2.387 2.287 2.287 0 0 0 .616 4.491v-1.146a1.146 1.146 0 1 1 0-2.293c1.372 0 2.293 1.482 2.293 2.866a2.93 2.93 0 0 1-.71 1.918.572.572 0 0 0 0 .75zm-7.314-4.961a1.146 1.146 0 1 1-2.293 0h-1.147a2.296 2.296 0 0 0 2.293 2.293c.404-.002.8-.113 1.147-.32v10.821c-.41.253-.882.388-1.364.39a2.681 2.681 0 0 1-2.606-2.387 2.287 2.287 0 0 0-.616-4.491v1.146a1.146 1.146 0 1 1 0 2.293c-1.372 0-2.293-1.482-2.293-2.866a2.93 2.93 0 0 1 .71-1.918.572.572 0 0 0 0-.75 2.93 2.93 0 0 1-.71-1.918 2.82 2.82 0 0 1 2.294-2.824.628.628 0 0 0 .473-.616 2.812 2.812 0 0 1 2.748-2.866c.482.003.953.138 1.364.39zm9.171 2.293c0-1.76-1.093-3.647-2.897-3.966a3.826 3.826 0 0 0-3.764-3.486c-.682 0-1.352.184-1.937.534a3.767 3.767 0 0 0-1.937-.534 3.946 3.946 0 0 0-3.875 3.607 3.981 3.981 0 0 0-2.787 3.845c0 .817.244 1.616.703 2.293a4.084 4.084 0 0 0-.703 2.293c0 1.76 1.094 3.647 2.898 3.965a3.826 3.826 0 0 0 3.764 3.487c.682 0 1.351-.184 1.937-.534.585.35 1.255.534 1.937.534a3.946 3.946 0 0 0 3.874-3.608 3.981 3.981 0 0 0 2.787-3.844c.001-.818-.244-1.616-.702-2.293a4.084 4.084 0 0 0 .702-2.293z"/></g></g></g></g></g></g></svg>