<svg xmlns="http://www.w3.org/2000/svg" width="46" height="46" viewBox="0 0 46 46"><defs><clipPath id="5yjya"><path d="M16.72 24.425V10.447h13.6v13.979l-6.8 4.858z"/></clipPath></defs><g><g><g><path fill="#98aed3" d="M23 0c12.703 0 23 10.297 23 23S35.703 46 23 46 0 35.703 0 23 10.297 0 23 0z"/></g><g><path fill="#fff" d="M32.396 9.402l.464-.746.626-.146.445.194-.04.5-.957.678h-.54zm2.234-1.946l.19.931.408.658.27.311.492.193-.464.553-.9.086h-.676l.076-.8.562-.116-.047-.378-.524-.329-.366-.252v-.369l.212-.328zm-14.414 4.243h.667l.138-.356.265-.005.3.063-.129.27-.331.028-.067.32-.255.159-.409.034c-.014-.096-.022-.169-.022-.169h-.159zm-.699-.001l.291.229-.05.339-.484.041.026-.338zM0 23c.002 12.697 10.294 22.991 22.991 22.996a22.95 22.95 0 0 0 17.691-8.3h-.467v-1.55l-.888-1.2v-1.864l-.678-.677-.06-.776.862-1.647-1.63-2.888.19-1.96-1.468-.152-.54-.542h-.988l-.5.464h-1.74l-.059.155h-.968l-2.22-2.538.017-1.977.367-.135.137-.756h-.522l-.213-.794L31.884 17v-1.315l1.258-.7.51.051h1.035l.81-.436 2.61-.2v1.33l2.064.524.4.29h.377v-.727l1.19-.115 1.13.843h1.804a23.08 23.08 0 0 0-.67-1.964l-.99.017-.608-.669-.117-1.075-.623.341-.334 1.315-.9-.959-.036-.906-.868-.75-.32-.318H38.6l.317.9 1.211.677.21.224-.263.132.012.713-.59.247-.5-.11-.317-.447.82.043.222-.3-1.815-1.228-.139-.523-.737.669-.747-.154-1.138 1.483-.225.58-.728.067-1.077.007-.644-.3-.19-1.282.232-.611 1.1-.24 1.2.24.147-.663-.508-.121.173-1.033 1.2-.189.841-1.191.869-.146.784.117h.289l-.16-1.119-.953.385-.336-.836-.553-.077-.1-.573.451-.493 1.073-.422.155-.277A22.91 22.91 0 0 0 23 0 22.893 22.893 0 0 0 9.827 4.127h.63l.523.29.985.213.077.388 1.567.058-.212-.5-1.392-.04.328-.309-.114-.369h-1.258l1.372-1.027h1.315l.618.854 1.026.058.618-.6.464.232-.852.833s-1.178.021-1.12.021c.062.267.095.54.1.813l1.43-.04.154-.386.985-.059.116-.58-.58-.1.193-.524.444-.135 1.546.077-.852.776.138.6.89.136-.059-1.085.85-.446 1.508-.174 2.183.97v.832l.7.174-.349.66h-.986l-.292.754-2.25-.532 1.771-.946-.675-.575-1.527.194-.134.14h-.005l-.023.031-.44.458-.727.06.058.363.254.105-.01.12-.592.084-.044.344-.565.03-.1-.684-1.014.31-2.073 1.216.233.857.58.38 1.158.16v1.32l.536-.086.493-1.032 1.233-.39V6.833l.686-.519 1.657.392-.116 1.047h.445l1.22-.6.058 1.375.887.542-.037.815-.849.29.058.27 1.024.467-.02.562-.3.025v-.015l-1.294-.4-.055-.416.378-.26v-.379l-.407-.1-.1.35-.713.11-.07-.023v.036l-.248.037-.2-.408-.233-.1h-.508l-.23.191v.422l.433.145.43.061-.1.043-.392.435-.172-.217-.378-.1-1.03.971.134.11-1.52.845-1.432 1.492-.1.664-1.434.945-.71.717.078 1.433-.986-.46.007-.838H9.775l-1.42.721-.618 1.141-.245.9.4.877 1.12.137 1.778-1.192.156.591-.543 1.028 1.354.232.136 2.1 1.856.316 1.18-1.367 1.43.292.5.7 1.372-.08.038-.407.754.367.851 1.336 1.468.02.542.951.077 1.162 1.624.62 2.05.02.6.986.907.292-.174.816-1 1.267-.29 2.807-.9.712-1.333-.039-.444.775.33 1.456-1.451 1.86-.463.853-1.382.665-.909.14-.037.385.638.184-.077.417-.57.552.346.44.688.018-.038.531-.183.524-.059.426 1.017.86-.135.445-1.384-.026-1.377-1.2-1.073-1.89.15-1.826-.812-1.086.329-1.84-.482-.135v-3.992s-1.353-1.028-1.431-1.028c-.078 0-.716-.174-.716-.174l-.136-.754-1.759-2.21.174-.794.058-1.3 1.218-.853-.174-1.454-1.778-.134-1.392-1.59-.986-.274-.637-.117.077-.581-.812-.116v.329l-2.031-.508-.817-1.253.333-.607-1.285-1.881-.221-1.376H3.23l.173 1.336.889 1.375-.1.544-.753-.117-.927-1.585v-1.844l-.967-.465v-.507A22.947 22.947 0 0 0 0 23z"/></g><g><path fill="#0d4575" d="M23.52 29.284l-6.8-4.86V10.822l6.8 4.858 6.8-4.86v13.607z"/></g><g><g><path fill="#0d4575" d="M16.72 24.425V10.447h13.6v13.979l-6.8 4.858z"/></g><g clip-path="url(#5yjya)"><path fill="#fff" d="M8.453 30.451l28.111-20.065 1.52 2.13L9.973 32.58z"/></g><g clip-path="url(#5yjya)"><path fill="#0cabed" d="M10.074 32.504l28.111-20.065 1.52 2.13-28.111 20.064z"/></g><g clip-path="url(#5yjya)"><path fill="#ee3b24" d="M12.586 33.923l21.3-15.193 1.519 2.13-21.3 15.193z"/></g></g><g><path fill="#0d4575" d="M13.605 37.638v-5.954l-3.65 2.6-.275.244-.274-.241-3.65-2.6v5.95h-1.57v-7.33h1.889l3.605 2.85 3.606-2.85h1.889v7.33z"/></g><g><path fill="#0d4575" d="M18.29 37.637v-7.325h2.092v5.665l7.326-5.665h2.093v7.325h-2.093v-5.79l-7.326 5.79z"/></g><g><path fill="#0d4575" d="M32.395 37.638v-7.326h2.093v3.139h5.233a1.046 1.046 0 1 0 0-2.093h-5.232v-1.046h6.278a2.093 2.093 0 0 1 0 4.186h-6.279v3.14z"/></g></g></g></svg>